<svg xmlns="http://www.w3.org/2000/svg" viewBox="0 0 96 96" role="img" aria-label="Droidspaces test icon">
  <defs>
    <linearGradient id="g" x1="0" x2="1" y1="0" y2="1">
      <stop offset="0" stop-color="#83d6ff"/>
      <stop offset="1" stop-color="#2d5dcc"/>
    </linearGradient>
  </defs>
  <rect width="96" height="96" rx="22" fill="#0b1020"/>
  <path d="M24 30h48a6 6 0 0 1 6 6v8a6 6 0 0 1-6 6H24a6 6 0 0 1-6-6v-8a6 6 0 0 1 6-6Zm0 28h48a6 6 0 0 1 6 6v8a6 6 0 0 1-6 6H24a6 6 0 0 1-6-6v-8a6 6 0 0 1 6-6Z" fill="url(#g)"/>
  <circle cx="31" cy="40" r="4" fill="#0b1020"/>
  <circle cx="31" cy="68" r="4" fill="#0b1020"/>
  <path d="M32 24 24 12M64 24l8-12" stroke="#83d6ff" stroke-width="5" stroke-linecap="round"/>
</svg>
